<?xml version="1.0" standalone="no"?>
<!DOCTYPE svg PUBLIC "-//W3C//DTD SVG 20010904//EN"
 "http://www.w3.org/TR/2001/REC-SVG-20010904/DTD/svg10.dtd">
<svg version="1.0" xmlns="http://www.w3.org/2000/svg"
 width="1024.000000pt" height="1024.000000pt" viewBox="0 0 1024.000000 1024.000000"
 preserveAspectRatio="xMidYMid meet">
<metadata>
Created by potrace 1.11, written by Peter Selinger 2001-2013
</metadata>
<g transform="translate(0.000000,1024.000000) scale(0.100000,-0.100000)"
fill="#000000" stroke="none">
<path d="M5368 10025 c-2 -1 -55 -6 -118 -10 -63 -3 -131 -9 -150 -11 -36 -5
-103 -12 -180 -18 -25 -3 -45 -5 -45 -6 0 -2 -29 -7 -85 -14 -46 -6 -85 -13
-85 -16 0 -1 -16 -3 -35 -5 -59 -7 -74 -10 -99 -24 -18 -10 -22 -10 -16 0 5 7
4 10 -2 6 -6 -4 -28 -9 -49 -13 -22 -3 -43 -9 -49 -12 -10 -7 -16 -8 -70 -17
-50 -8 -60 -10 -70 -17 -5 -3 -27 -9 -48 -12 -21 -3 -47 -11 -57 -16 -10 -5
-33 -12 -51 -14 -19 -3 -64 -16 -101 -30 -37 -13 -69 -21 -72 -18 -3 2 -11 0
-18 -6 -7 -5 -42 -18 -78 -27 -36 -9 -69 -20 -75 -25 -5 -4 -26 -11 -45 -15
-19 -4 -39 -11 -45 -15 -12 -9 -67 -24 -78 -21 -5 1 -23 -9 -40 -21 -18 -13
-33 -22 -34 -20 -2 1 -4 2 -5 1 -7 -2 -34 -9 -48 -12 -8 -1 -26 -9 -40 -17
-14 -8 -28 -15 -32 -16 -5 -1 -10 -3 -13 -4 -3 -1 -9 -3 -14 -4 -5 0 -13 -4
-17 -8 -4 -5 -16 -8 -26 -8 -10 0 -18 -5 -18 -11 0 -5 -4 -7 -10 -4 -5 3 -10
2 -10 -3 0 -9 -47 -27 -62 -24 -5 1 -8 -3 -8 -10 0 -6 -3 -8 -6 -5 -4 4 -19
-2 -33 -12 -22 -15 -55 -32 -71 -35 -3 -1 -16 -8 -30 -16 -14 -7 -47 -25 -75
-40 -69 -37 -98 -53 -115 -67 -8 -6 -22 -13 -30 -15 -8 -2 -25 -13 -37 -25
-13 -13 -29 -23 -35 -23 -6 0 -27 -12 -47 -27 -20 -16 -52 -36 -71 -47 -19
-10 -37 -22 -40 -26 -3 -4 -30 -22 -60 -42 -31 -19 -63 -43 -73 -52 -9 -10
-17 -14 -17 -9 0 4 -7 -1 -15 -11 -8 -11 -15 -16 -15 -10 0 5 -4 5 -8 -1 -4
-6 -28 -26 -55 -45 -26 -19 -63 -48 -82 -65 -57 -50 -65 -56 -65 -50 0 3 -20
-15 -44 -40 -25 -25 -48 -45 -51 -45 -12 0 -353 -335 -448 -441 -27 -30 -64
-71 -83 -91 -19 -21 -33 -38 -30 -38 3 0 -15 -21 -39 -47 -25 -27 -45 -52 -45
-57 0 -5 -15 -24 -33 -42 -45 -46 -57 -62 -57 -73 0 -5 -10 -18 -22 -28 -25
-21 -46 -49 -54 -75 -4 -10 -9 -18 -13 -18 -4 0 -34 -39 -66 -87 -33 -49 -63
-89 -67 -91 -5 -2 -8 -9 -8 -16 0 -7 -8 -21 -17 -32 -10 -10 -27 -37 -38 -59
-11 -22 -27 -45 -35 -52 -8 -7 -10 -13 -5 -13 6 0 5 -3 -1 -8 -6 -4 -21 -26
-33 -49 -12 -24 -27 -43 -33 -43 -6 0 -9 -3 -5 -6 6 -6 -22 -65 -57 -116 -9
-15 -19 -33 -20 -40 -1 -7 -5 -18 -9 -25 -33 -52 -115 -222 -110 -227 4 -3 1
-6 -5 -6 -7 0 -12 -6 -12 -14 0 -8 -7 -22 -16 -30 -8 -9 -17 -25 -19 -36 -2
-11 -17 -48 -33 -83 -45 -94 -56 -121 -54 -129 1 -5 -3 -8 -8 -8 -5 0 -9 -3
-8 -7 3 -14 -15 -68 -30 -90 -8 -13 -11 -23 -7 -23 4 0 2 -7 -5 -15 -7 -8 -9
-15 -5 -15 4 0 2 -7 -5 -15 -7 -8 -10 -15 -6 -15 4 0 0 -10 -9 -23 -8 -13 -12
-27 -8 -30 3 -4 2 -7 -3 -7 -5 0 -10 -9 -11 -21 -2 -25 -33 -109 -47 -128 -9
-12 -8 -13 3 -6 11 6 12 5 5 -6 -4 -8 -9 -18 -10 -24 -1 -5 -9 -30 -18 -54 -9
-24 -13 -47 -10 -52 3 -5 1 -9 -5 -9 -5 0 -8 -8 -7 -17 2 -9 -3 -28 -11 -42
-7 -15 -13 -38 -13 -53 0 -15 -4 -37 -9 -50 -19 -46 -23 -64 -26 -98 -2 -19
-6 -46 -10 -60 -3 -14 -8 -41 -11 -60 -5 -41 -12 -75 -14 -75 -1 0 -4 -13 -5
-30 -2 -16 -6 -43 -9 -60 -4 -16 -9 -48 -11 -70 -3 -22 -8 -58 -11 -80 -3 -22
-7 -61 -7 -87 -1 -27 -4 -48 -7 -48 -4 0 -7 -26 -7 -57 -1 -32 -5 -121 -9
-198 -14 -257 -7 -645 11 -645 5 0 4 -4 -3 -9 -17 -11 -17 -21 0 -32 10 -7 10
-9 0 -9 -9 0 -10 -5 -2 -19 5 -11 9 -40 7 -66 -2 -25 1 -49 5 -51 5 -3 6 -9 3
-14 -3 -5 -1 -19 5 -30 6 -11 7 -20 2 -20 -9 0 -9 -13 1 -70 4 -19 9 -62 13
-95 12 -118 13 -130 20 -165 3 -19 8 -50 10 -67 1 -18 7 -49 13 -69 6 -21 8
-40 6 -44 -2 -3 1 -24 6 -46 13 -52 17 -71 23 -122 3 -24 9 -49 13 -55 4 -7 8
-24 9 -39 1 -16 2 -29 4 -30 1 -2 3 -11 5 -21 2 -10 7 -26 11 -35 4 -9 8 -24
8 -32 1 -8 5 -21 9 -27 5 -8 3 -13 -5 -13 -10 0 -10 -2 0 -9 8 -4 14 -12 14
-17 0 -5 5 -20 10 -33 5 -14 7 -30 4 -37 -2 -6 -1 -15 4 -20 5 -5 10 -20 12
-34 1 -14 9 -31 16 -39 8 -8 12 -25 9 -38 -2 -12 0 -23 4 -23 5 0 9 -6 9 -13
0 -8 7 -28 16 -45 8 -18 17 -46 19 -63 3 -17 9 -36 14 -43 5 -6 16 -33 24 -61
17 -55 66 -174 91 -223 9 -18 17 -35 17 -39 3 -22 32 -83 41 -83 5 0 7 -4 4
-9 -5 -7 32 -93 67 -156 6 -11 27 -51 48 -90 81 -154 112 -210 118 -215 4 -3
15 -24 25 -47 11 -24 23 -43 28 -43 4 0 8 -7 8 -15 0 -8 5 -15 11 -15 5 0 17
-16 25 -35 8 -19 19 -35 25 -35 5 0 8 -4 4 -9 -3 -5 3 -16 12 -23 10 -7 26
-28 37 -47 10 -19 26 -41 35 -51 31 -33 51 -60 51 -70 0 -6 7 -13 15 -16 8 -4
13 -10 10 -14 -3 -5 3 -15 13 -22 10 -7 29 -29 42 -48 24 -35 43 -57 164 -185
36 -38 80 -86 98 -105 18 -19 35 -34 38 -34 5 2 36 -26 170 -146 25 -22 50
-41 55 -42 12 -2 27 -14 64 -50 16 -16 33 -28 40 -28 6 0 11 -3 11 -8 0 -4 17
-16 37 -27 21 -11 45 -27 54 -35 36 -33 60 -50 68 -47 5 1 32 -15 61 -36 29
-22 68 -46 88 -54 20 -8 50 -25 66 -37 27 -20 55 -35 79 -41 4 -2 10 -4 15 -5
4 -1 10 -2 15 -1 4 0 7 -3 7 -7 0 -5 16 -14 35 -22 19 -8 35 -17 35 -21 0 -4
15 -10 33 -14 17 -4 61 -21 97 -38 36 -17 77 -32 92 -34 15 -1 44 -12 64 -24
20 -11 49 -22 63 -24 54 -8 74 -15 91 -30 9 -8 19 -12 23 -9 3 3 12 2 19 -2
14 -9 41 -14 72 -15 10 0 28 -6 40 -14 19 -12 111 -32 129 -27 4 1 16 -2 26
-7 22 -12 64 -22 112 -26 20 -1 47 -6 60 -11 13 -4 33 -9 44 -9 11 0 25 -3 30
-7 6 -3 21 -4 35 -3 14 1 39 -2 55 -7 17 -5 55 -11 85 -14 63 -5 125 -12 125
-15 0 -10 581 -15 705 -5 41 3 110 7 152 10 42 2 86 7 97 11 36 11 66 17 106
20 54 4 116 14 126 21 5 2 30 7 56 10 26 2 66 10 88 16 22 7 45 12 50 13 6 0
15 3 20 6 6 3 29 5 52 5 22 -1 39 2 37 6 -2 3 10 10 28 13 18 4 38 11 43 15 6
4 25 7 43 6 17 0 32 2 32 7 0 4 9 7 21 7 11 0 41 9 66 21 25 11 47 18 51 15 3
-3 11 -1 18 4 6 6 16 10 20 9 16 -4 69 13 85 27 8 8 31 16 50 18 19 3 35 6 37
7 1 1 7 3 12 4 6 1 11 3 13 4 1 2 12 4 25 7 13 2 30 10 37 18 8 8 38 19 67 26
29 7 81 26 115 42 35 16 67 27 73 23 5 -3 10 -1 10 4 0 6 7 11 16 11 17 0 75
29 85 43 3 5 8 8 10 7 10 -5 98 24 129 43 19 12 38 21 43 19 4 -1 7 2 7 8 0 5
10 10 23 10 13 0 27 3 31 8 4 4 11 7 14 8 16 1 62 28 62 36 0 4 3 7 8 6 6 -2
60 21 132 55 14 7 34 20 44 29 11 10 23 19 28 19 30 5 94 35 102 48 4 6 12 9
17 6 5 -4 9 -1 9 4 0 6 6 11 14 11 8 0 17 7 20 16 4 9 9 14 13 11 3 -4 18 2
32 12 14 10 29 18 32 17 4 0 29 15 55 34 27 19 67 44 89 55 22 10 51 30 65 43
14 12 44 31 67 42 23 10 55 31 70 45 15 15 51 40 78 56 28 15 60 38 72 49 12
11 26 20 32 20 5 0 11 6 14 13 3 6 22 21 43 32 22 11 53 34 70 50 46 44 73 65
84 65 6 0 10 5 10 10 0 6 5 10 11 10 6 0 31 20 55 45 23 25 47 45 53 45 6 0
11 5 11 11 0 5 4 8 9 5 5 -4 21 7 34 24 14 16 30 30 36 30 6 0 11 6 11 13 0 6
17 23 37 37 41 27 128 110 116 110 -4 0 4 8 17 17 33 23 70 55 84 71 6 8 43
47 81 87 69 72 179 191 222 240 12 14 19 25 15 25 -3 0 4 7 16 16 12 8 41 41
64 72 23 31 62 77 85 102 24 24 43 50 43 57 0 6 20 33 45 60 24 26 49 60 56
76 6 15 15 27 20 27 5 0 8 3 7 8 -4 12 34 62 43 56 8 -5 13 9 10 29 0 4 3 7 8
7 5 0 19 19 30 43 11 23 33 56 49 72 15 17 39 53 52 80 13 28 27 52 31 55 13
9 78 113 74 119 -2 4 10 24 26 46 16 22 36 54 44 72 8 17 19 35 25 38 6 4 8
10 5 15 -3 5 4 24 15 42 11 18 25 44 32 58 7 14 16 27 20 30 4 3 9 15 11 25 1
11 6 26 11 33 4 7 5 16 2 19 -3 3 3 18 13 32 25 35 64 122 57 128 -3 3 8 30
25 61 16 31 32 65 34 77 2 11 4 20 5 20 1 0 3 10 5 21 3 12 10 34 16 50 7 16
12 32 11 37 -1 4 3 7 10 7 6 0 8 3 5 7 -4 3 -3 11 2 17 5 6 12 31 16 55 3 24
15 66 26 92 10 27 16 49 13 49 -4 0 -1 7 6 15 6 8 9 19 6 24 -4 5 -2 12 3 15
5 4 8 17 5 31 -2 13 0 27 6 30 6 4 8 11 5 16 -4 5 -2 9 3 9 5 0 9 6 10 13 0 6
3 25 7 41 3 15 7 47 9 71 2 23 8 51 14 61 5 11 8 27 7 37 -2 9 0 17 3 17 4 0
8 17 9 38 3 52 12 112 18 122 3 5 8 45 10 91 3 45 8 86 12 92 16 26 29 659 13
687 -1 3 -3 46 -4 96 -2 50 -6 96 -10 102 -4 6 -8 52 -10 101 -2 49 -7 95 -12
102 -4 8 -9 38 -10 69 -3 59 -7 88 -20 135 -4 17 -7 46 -7 65 1 19 -5 55 -13
79 -8 25 -17 68 -20 95 -6 65 -8 79 -16 91 -7 12 -20 70 -24 105 -1 14 -5 39
-9 55 -4 17 -8 37 -9 45 0 8 -5 18 -10 22 -5 3 -11 21 -13 40 -8 64 -10 73
-22 103 -16 37 -23 64 -24 93 -1 12 -4 22 -8 22 -3 0 -6 10 -5 23 1 12 -1 24
-4 27 -13 12 -40 73 -40 90 0 10 -4 21 -10 25 -5 3 -7 12 -4 19 3 7 -9 43 -26
80 -17 36 -33 78 -36 93 -3 16 -9 32 -15 37 -5 6 -9 16 -9 23 0 8 -9 23 -20
35 -11 12 -20 31 -20 42 -1 21 -26 76 -68 149 -12 20 -22 40 -22 45 0 15 -54
112 -62 112 -4 0 -8 6 -8 13 0 17 -51 121 -62 125 -5 2 -20 29 -33 59 -14 30
-41 76 -60 100 -19 25 -35 52 -35 60 0 14 -9 27 -46 68 -12 13 -31 44 -44 69
-12 25 -26 46 -31 46 -5 0 -9 7 -9 15 0 8 -5 15 -10 15 -6 0 -15 10 -20 23
-19 42 -53 88 -92 125 -15 14 -26 28 -23 32 2 3 -7 18 -20 32 -13 14 -22 28
-19 30 2 3 -7 11 -21 18 -13 7 -27 22 -31 33 -7 23 -28 49 -71 90 -18 17 -33
36 -33 43 0 7 -10 21 -23 31 -13 10 -23 20 -23 23 0 11 -198 226 -260 281 -16
14 -35 35 -43 47 -8 12 -18 19 -22 17 -4 -3 -9 2 -13 10 -3 8 -10 15 -16 15
-6 0 -33 21 -59 48 -27 26 -55 48 -62 50 -8 2 -16 8 -17 13 -2 5 -8 7 -13 3
-5 -3 -9 1 -9 8 0 12 -89 78 -105 78 -3 0 -11 4 -18 10 -57 46 -77 61 -77 56
0 -3 -25 8 -56 24 -32 16 -87 39 -123 51 -36 11 -69 26 -73 32 -6 9 -8 9 -8 0
0 -9 -10 -9 -42 1 -24 7 -77 12 -118 11 -73 -1 -127 15 -167 51 -7 7 -47 29
-90 50 -43 21 -80 41 -83 44 -5 5 -15 8 -52 15 -9 2 -29 10 -46 19 -28 14 -52
21 -114 33 -16 3 -28 8 -28 12 0 4 -8 8 -17 9 -32 3 -48 7 -60 15 -7 5 -13 4
-13 -2 0 -5 -13 -3 -28 5 -26 12 -82 25 -122 26 -8 0 -21 5 -27 11 -9 6 -13 6
-13 -3 0 -10 -3 -10 -15 0 -8 6 -19 9 -25 5 -5 -3 -10 -1 -10 6 0 10 -3 10
-12 1 -8 -8 -17 -8 -30 -1 -10 5 -23 7 -28 4 -5 -3 -11 -1 -14 4 -3 5 -31 9
-62 10 -31 0 -62 5 -69 11 -9 8 -15 8 -20 0 -3 -6 -11 -8 -16 -4 -6 3 -45 8
-87 11 -122 8 -126 8 -137 15 -6 3 -19 3 -30 1 -11 -2 -24 -4 -30 -3 -23 3
-634 8 -637 5z m185 -490 c15 -1 27 2 27 6 0 3 12 5 28 3 50 -7 77 -7 100 0
12 4 22 4 22 -1 0 -4 55 -9 123 -9 165 -2 274 -8 283 -17 4 -4 13 -2 21 4 7 6
13 7 13 2 0 -5 18 -9 40 -8 22 1 40 -1 40 -4 0 -4 19 -7 43 -8 52 -3 132 -10
132 -13 0 -2 27 -6 95 -14 30 -4 57 -10 60 -14 3 -4 23 -8 45 -10 22 -1 47 -5
55 -9 8 -3 26 -8 40 -10 13 -2 30 -8 36 -14 6 -5 14 -6 17 -2 4 3 13 0 22 -7
8 -7 15 -9 15 -4 0 4 5 3 12 -4 7 -7 24 -12 39 -12 15 0 29 -5 31 -11 2 -5 11
-11 20 -12 21 -4 148 -68 170 -87 10 -8 27 -23 38 -32 11 -10 20 -16 20 -13 0
14 128 -109 170 -164 41 -53 102 -83 175 -87 36 -1 67 2 70 7 4 5 11 7 16 3 5
-3 16 0 24 6 8 7 15 9 15 5 0 -5 8 2 19 13 10 12 27 22 37 22 21 -1 64 -33 64
-47 0 -6 14 -22 30 -36 17 -15 30 -31 30 -36 0 -5 9 -13 20 -16 11 -3 20 -12
20 -18 0 -7 11 -21 25 -31 13 -10 22 -23 18 -29 -3 -5 -2 -7 4 -4 8 5 73 -56
73 -69 0 -11 48 -52 54 -47 3 4 6 2 6 -3 0 -13 46 -69 82 -102 15 -14 25 -28
23 -32 -3 -5 2 -11 11 -14 9 -4 15 -9 12 -12 -3 -3 12 -22 32 -42 21 -21 40
-44 42 -52 2 -8 11 -21 21 -28 9 -7 14 -19 11 -25 -4 -7 -4 -9 0 -5 11 9 40
-19 59 -57 8 -16 26 -42 39 -56 13 -14 30 -39 36 -55 7 -16 26 -44 42 -63 16
-18 27 -37 24 -42 -3 -5 0 -9 6 -9 6 0 8 -4 5 -10 -3 -5 -1 -10 4 -10 6 0 11
-6 11 -14 0 -7 6 -19 14 -25 16 -13 51 -82 48 -93 -1 -5 3 -8 9 -8 5 0 7 -4 4
-10 -3 -5 -2 -10 3 -10 10 0 48 -70 44 -82 -1 -5 3 -8 9 -8 6 0 9 -7 5 -15 -3
-8 -1 -15 4 -15 6 0 10 -6 10 -14 0 -8 6 -21 14 -28 14 -15 31 -58 28 -70 -1
-5 3 -8 9 -8 6 0 8 -7 5 -15 -3 -9 1 -18 9 -21 8 -4 15 -15 15 -25 0 -10 4
-19 9 -19 8 0 22 -42 23 -67 0 -5 5 -17 11 -28 6 -11 10 -23 9 -27 -1 -5 2 -8
8 -8 5 0 16 -22 24 -48 8 -27 23 -66 34 -88 11 -21 23 -55 27 -74 4 -19 11
-42 16 -52 5 -10 13 -26 18 -36 8 -16 15 -43 25 -97 2 -11 13 -43 24 -71 12
-29 19 -54 16 -56 -2 -3 7 -39 21 -82 14 -42 25 -88 25 -102 0 -13 6 -40 14
-59 8 -18 12 -36 8 -39 -3 -3 -1 -6 4 -6 6 0 11 -21 13 -47 1 -25 7 -55 12
-65 5 -10 7 -18 4 -18 -3 0 0 -10 6 -22 7 -12 13 -47 15 -76 2 -30 8 -60 13
-66 5 -6 11 -30 15 -54 3 -24 8 -47 11 -53 4 -5 1 -9 -5 -9 -7 0 -8 -6 -1 -17
11 -21 20 -70 27 -138 6 -59 10 -90 14 -90 2 0 4 -25 5 -55 2 -30 6 -68 9 -85
8 -37 18 -168 20 -257 0 -38 3 -68 6 -68 3 0 5 -61 5 -135 0 -74 -3 -135 -7
-135 -4 0 -3 -11 2 -25 6 -15 6 -25 0 -25 -5 0 -8 -9 -7 -20 1 -11 5 -20 9
-20 4 0 4 -10 -1 -22 -4 -13 -7 -33 -6 -45 1 -13 -1 -23 -4 -23 -4 0 -6 -26
-6 -57 1 -32 -2 -62 -6 -68 -3 -5 -7 -17 -7 -25 -3 -62 -14 -143 -22 -165 -5
-14 -7 -25 -4 -25 3 0 2 -6 -3 -12 -4 -7 -8 -30 -9 -50 -1 -21 -5 -45 -9 -55
-5 -10 -9 -26 -10 -35 -2 -10 -3 -19 -5 -20 -1 -2 -3 -18 -5 -36 -2 -19 -7
-41 -11 -50 -4 -10 -8 -20 -9 -24 -2 -5 -4 -10 -5 -13 -1 -3 -4 -9 -5 -15 -1
-5 -4 -11 -5 -12 -1 -2 -3 -14 -5 -28 -5 -38 -13 -69 -22 -83 -8 -12 -13 -32
-15 -54 -1 -7 -5 -13 -10 -13 -5 0 -7 -4 -3 -10 3 -5 -1 -26 -10 -47 -9 -21
-17 -40 -17 -43 -1 -3 -7 -19 -15 -37 -7 -18 -13 -37 -13 -43 0 -6 -12 -37
-27 -68 -15 -31 -28 -60 -28 -64 0 -3 -3 -10 -7 -14 -5 -4 -8 -18 -8 -30 0
-13 -4 -26 -10 -29 -5 -3 -17 -23 -27 -43 -9 -20 -19 -39 -22 -42 -4 -3 -8
-14 -9 -25 -2 -11 -8 -22 -13 -23 -5 -2 -7 -8 -3 -13 3 -5 0 -9 -6 -9 -6 0 -8
-4 -5 -10 3 -5 1 -10 -5 -10 -6 0 -8 -4 -5 -10 3 -5 2 -10 -3 -10 -5 0 -19
-25 -32 -55 -13 -30 -27 -55 -31 -55 -4 0 -20 -25 -35 -56 -15 -32 -39 -70
-52 -85 -13 -16 -20 -29 -15 -29 4 0 0 -5 -9 -11 -10 -5 -18 -17 -18 -24 0 -8
-5 -15 -12 -15 -6 0 -8 -3 -5 -7 4 -3 -8 -25 -26 -47 -37 -47 -72 -100 -68
-104 1 -2 -15 -22 -36 -45 -21 -23 -51 -63 -67 -90 -17 -26 -33 -47 -37 -47
-4 0 -24 -26 -45 -57 -22 -31 -55 -73 -74 -93 -19 -20 -50 -56 -67 -80 -18
-24 -33 -40 -33 -35 0 5 -15 -11 -33 -35 -28 -38 -49 -61 -109 -117 -25 -23
-38 -42 -38 -54 0 -7 -3 -9 -7 -6 -3 4 -15 -5 -25 -20 -10 -16 -18 -25 -18
-21 0 11 -67 -58 -80 -82 -6 -11 -15 -20 -21 -20 -5 0 -20 -11 -33 -25 -13
-14 -28 -25 -35 -25 -6 0 -11 -7 -11 -15 0 -8 -12 -22 -27 -32 -31 -19 -29
-18 -101 -83 -71 -65 -102 -89 -102 -82 0 4 -7 -4 -16 -16 -8 -12 -20 -19 -26
-16 -7 4 -8 2 -4 -4 4 -7 -3 -17 -18 -24 -14 -6 -26 -15 -26 -20 0 -4 -5 -8
-12 -8 -6 0 -18 -7 -27 -15 -9 -8 -28 -25 -42 -39 -14 -13 -39 -31 -55 -39
-16 -8 -39 -23 -51 -34 -53 -45 -62 -51 -81 -57 -17 -6 -29 -14 -78 -55 -29
-24 -93 -59 -98 -54 -3 4 -6 1 -6 -6 0 -7 -4 -10 -9 -7 -5 4 -11 3 -13 -1 -7
-17 -70 -63 -79 -57 -5 3 -9 0 -9 -6 0 -6 -5 -8 -10 -5 -6 3 -13 -1 -16 -9 -3
-9 -10 -13 -15 -10 -5 3 -9 0 -9 -5 0 -6 -7 -11 -15 -11 -8 0 -15 -4 -15 -9 0
-5 -21 -18 -47 -29 -27 -11 -65 -32 -86 -46 -21 -14 -40 -26 -43 -26 -11 0
-79 -33 -105 -51 -14 -10 -52 -28 -85 -40 -32 -12 -65 -28 -72 -36 -7 -7 -20
-13 -28 -13 -8 0 -14 -4 -14 -8 0 -4 -9 -8 -20 -9 -20 -2 -92 -32 -100 -43 -3
-4 -18 -11 -35 -15 -16 -5 -32 -9 -35 -10 -3 -1 -23 -9 -45 -19 -22 -9 -41
-16 -41 -14 -1 2 -11 -5 -21 -15 -11 -9 -22 -15 -25 -12 -3 3 -18 1 -34 -5
-16 -6 -31 -11 -34 -11 -3 0 -15 -7 -28 -15 -24 -16 -54 -25 -84 -27 -10 -1
-18 -4 -18 -7 0 -3 -10 -6 -22 -7 -11 -1 -24 -6 -27 -12 -4 -5 -38 -17 -76
-27 -39 -9 -73 -22 -77 -28 -4 -6 -8 -8 -8 -3 0 4 -12 1 -27 -6 -16 -7 -35
-13 -43 -12 -8 1 -21 -3 -27 -8 -7 -5 -13 -6 -13 -2 0 4 -7 2 -15 -5 -9 -7
-18 -10 -22 -6 -3 3 -16 0 -27 -8 -12 -7 -41 -16 -66 -19 -25 -3 -63 -12 -85
-20 -22 -8 -61 -17 -87 -20 -26 -3 -56 -10 -66 -16 -11 -6 -22 -7 -26 -4 -3 3
-6 2 -6 -4 0 -5 -15 -9 -33 -8 -19 1 -58 -5 -88 -12 -50 -14 -100 -22 -156
-25 -13 -1 -23 -5 -23 -8 0 -3 -12 -6 -27 -7 -16 -1 -50 -5 -78 -8 -27 -3 -53
-5 -56 -3 -3 2 -13 -3 -22 -10 -10 -9 -17 -10 -22 -2 -4 6 -12 7 -23 1 -9 -5
-26 -5 -39 0 -15 6 -23 5 -23 -2 0 -6 -9 -9 -20 -6 -11 3 -22 2 -24 -1 -2 -4
-33 -7 -68 -6 -34 1 -69 -3 -75 -9 -7 -5 -13 -6 -13 -1 0 5 -26 8 -57 7 -115
-5 -266 1 -280 10 -8 5 -13 4 -13 -2 0 -6 -7 -8 -16 -4 -9 3 -34 6 -57 7 -23
1 -46 4 -52 7 -5 3 -30 7 -54 8 -24 1 -71 8 -103 16 -32 7 -66 12 -76 10 -9
-1 -29 4 -44 11 -15 8 -31 14 -35 13 -4 -1 -10 -1 -13 1 -3 1 -15 3 -27 6 -49
9 -59 11 -75 17 -39 15 -54 19 -86 23 -18 2 -43 11 -55 19 -12 8 -41 17 -64
21 -24 4 -43 10 -43 15 0 5 -8 9 -18 9 -10 0 -22 4 -27 9 -6 6 -21 11 -35 13
-14 2 -48 15 -76 30 -29 15 -54 24 -58 21 -3 -4 -6 -1 -6 5 0 6 -7 9 -15 6 -8
-4 -15 -2 -15 3 0 5 -16 15 -35 23 -19 8 -35 18 -35 22 0 5 -3 7 -7 5 -5 -3
-26 6 -48 19 -22 13 -60 34 -85 46 -25 13 -55 33 -68 46 -12 13 -22 20 -22 17
0 -4 -18 4 -40 16 -22 13 -40 26 -40 31 0 4 -7 8 -15 8 -8 0 -15 4 -15 8 0 4
-14 16 -30 25 -17 10 -30 16 -30 13 0 -3 -13 8 -29 24 -15 17 -33 30 -40 30
-6 0 -11 5 -11 10 0 6 -6 10 -12 10 -7 0 -32 19 -55 41 -24 22 -43 37 -43 33
0 -4 -8 3 -19 14 -10 12 -20 20 -22 18 -2 -2 -10 2 -17 10 -7 8 -9 14 -5 14 4
0 -4 8 -19 18 -15 10 -52 41 -81 70 -30 28 -57 48 -61 45 -3 -4 -6 -1 -6 6 0
7 -25 37 -56 67 -30 30 -53 54 -49 54 3 0 -14 19 -37 43 -73 74 -118 126 -118
137 0 6 -5 8 -10 5 -5 -3 -10 0 -10 8 0 7 -12 27 -28 44 -39 45 -134 183 -125
183 4 0 -3 7 -15 16 -12 8 -22 24 -22 35 0 10 -3 19 -8 19 -10 0 -76 120 -65
120 4 0 3 4 -2 8 -16 11 -46 61 -50 84 -3 11 -11 28 -19 37 -7 9 -17 27 -21
41 -4 14 -17 43 -28 65 -12 22 -20 46 -19 53 2 6 -3 12 -9 12 -7 0 -9 3 -6 6
4 4 0 19 -8 33 -16 29 -64 147 -70 171 -2 8 -13 41 -25 72 -12 32 -22 66 -23
78 -1 11 -4 20 -8 20 -7 0 -25 64 -30 108 0 4 -5 12 -10 18 -4 6 -9 25 -11 42
-1 18 -6 32 -11 32 -4 0 -6 4 -3 8 3 5 -1 20 -9 35 -7 14 -11 27 -9 30 2 2 -2
28 -10 58 -8 30 -17 70 -20 90 -3 20 -8 42 -11 50 -3 8 -7 33 -9 55 -1 22 -6
45 -9 51 -4 5 -9 28 -12 49 -3 21 -8 55 -11 74 -4 19 -7 52 -8 72 0 21 -4 38
-7 38 -3 0 -6 6 -6 13 -4 56 -11 106 -17 116 -4 6 -1 11 6 11 10 0 10 2 1 8
-6 4 -12 25 -13 47 -3 100 -5 125 -10 125 -5 0 -12 112 -14 212 -1 27 -5 48
-9 48 -4 0 -3 9 3 19 5 11 6 22 2 25 -9 5 -7 454 2 561 3 33 8 89 11 125 2 36
9 94 14 130 4 36 6 68 4 73 -2 4 0 7 6 7 5 0 9 20 9 45 0 24 3 49 7 54 3 6 8
31 11 57 2 26 7 50 9 55 3 4 8 27 11 51 3 24 10 61 17 83 6 22 10 44 8 49 -1
5 1 16 5 25 8 17 9 23 18 61 3 14 7 35 10 48 3 12 8 27 11 32 3 5 8 20 11 32
10 50 13 64 23 93 22 62 82 240 84 250 2 6 10 25 19 43 9 18 13 30 8 27 -9 -6
19 54 30 65 3 3 7 14 8 25 2 11 11 29 20 39 13 15 14 18 2 11 -9 -5 -8 0 4 13
11 12 16 22 13 22 -3 0 7 27 24 59 16 33 29 63 29 66 0 4 9 20 21 36 11 16 18
29 14 29 -3 0 4 19 16 43 12 23 21 44 20 46 -2 2 1 7 6 10 5 3 20 29 34 56 13
28 28 53 32 56 5 3 9 12 11 20 2 12 34 73 72 136 30 49 53 93 49 93 -2 0 7 12
20 26 14 15 22 30 20 34 -3 5 -2 10 3 12 9 4 79 109 88 132 3 9 10 14 14 11 4
-3 15 10 23 28 9 17 25 42 36 54 12 12 21 26 21 32 0 5 3 11 8 13 4 2 35 40
70 86 34 46 62 80 62 75 0 -4 11 9 25 29 14 21 35 48 48 61 12 13 45 50 72 82
122 140 242 261 256 257 5 -1 9 2 9 7 0 6 11 22 25 37 14 15 25 25 25 22 0 -2
37 31 83 73 106 101 107 101 166 145 28 21 51 42 51 46 0 4 6 8 14 8 8 0 17 7
20 16 3 8 10 12 16 9 5 -3 10 -1 10 4 0 6 7 11 15 11 8 0 15 4 15 8 0 10 146
112 160 112 5 0 10 5 10 10 0 6 7 10 15 10 8 0 15 4 15 8 0 5 19 19 43 32 23
12 49 29 57 35 8 7 38 25 65 41 28 15 53 31 56 36 3 5 12 10 20 11 8 2 30 12
49 23 69 40 180 95 180 88 0 -4 9 1 21 12 12 10 23 18 25 16 5 -3 63 21 107
44 15 9 27 13 27 10 0 -3 25 6 55 19 30 14 55 21 55 17 0 -4 4 -1 8 5 5 7 20
14 35 15 15 1 27 6 27 10 0 4 16 10 35 14 19 3 38 10 40 15 3 4 12 6 20 2 8
-3 15 -1 15 4 0 5 10 9 22 10 11 1 24 7 28 14 4 6 12 9 18 5 6 -3 31 3 58 14
26 11 49 18 52 16 2 -3 17 1 32 9 15 8 38 16 51 19 13 3 38 9 56 15 17 5 34 7
37 3 3 -3 6 0 6 6 0 7 3 11 8 11 4 -1 9 -1 12 1 3 1 16 4 30 6 48 9 55 11 84
23 16 6 31 10 33 7 3 -2 22 2 43 9 21 7 55 16 77 19 21 4 52 11 69 17 18 5 36
9 40 8 5 -1 11 0 14 1 25 9 155 28 163 23 4 -2 7 0 7 5 0 5 12 9 28 10 15 0
29 1 32 2 13 4 79 11 122 13 27 1 48 5 48 8 0 4 25 6 55 5 30 0 55 1 55 4 0 4
24 7 53 7 139 4 248 11 254 17 4 3 9 3 12 -1 3 -5 18 -8 34 -8z"/>
<path d="M7268 8760 c-15 -5 -29 -5 -32 -2 -3 3 -6 0 -6 -6 0 -6 -15 -13 -32
-17 -56 -12 -305 -162 -330 -199 -4 -6 -8 -7 -8 -3 0 4 -10 -1 -22 -13 -12
-11 -25 -20 -29 -20 -3 0 -24 -13 -45 -30 -46 -35 -55 -42 -76 -55 -66 -43
-101 -68 -118 -85 -11 -11 -27 -20 -35 -20 -8 0 -15 -4 -15 -9 0 -5 -22 -23
-50 -40 -27 -17 -50 -35 -50 -40 0 -5 -9 -12 -20 -16 -11 -3 -38 -22 -61 -41
-22 -19 -45 -31 -50 -28 -5 3 -9 1 -9 -5 0 -5 -24 -28 -52 -50 -29 -22 -59
-45 -65 -51 -7 -6 -15 -10 -19 -10 -3 1 -13 -7 -22 -17 -16 -17 -92 -75 -152
-115 -14 -10 -43 -31 -65 -48 -22 -16 -47 -33 -55 -37 -8 -4 -26 -17 -40 -30
-14 -13 -33 -23 -44 -23 -11 0 -17 -3 -13 -6 3 -4 -17 -22 -46 -42 -29 -20
-70 -48 -92 -64 -22 -15 -74 -51 -115 -80 -41 -28 -81 -58 -88 -65 -8 -7 -23
-18 -35 -24 -11 -7 -26 -16 -31 -21 -6 -5 -51 -38 -101 -73 -49 -35 -108 -78
-131 -94 -23 -17 -44 -31 -47 -31 -4 0 -15 -7 -24 -15 -20 -18 -197 -152 -229
-175 -32 -23 -135 -111 -166 -144 -16 -15 -28 -25 -28 -22 0 4 -15 -10 -32
-31 -18 -20 -43 -48 -56 -62 -12 -13 -28 -44 -35 -69 -17 -58 1 -104 51 -128
76 -36 152 -9 375 134 31 20 103 66 160 101 56 35 139 88 184 117 46 30 87 54
92 54 5 0 11 7 15 15 3 8 10 15 15 15 9 0 173 110 206 138 6 5 24 17 40 28 17
10 33 22 36 27 10 13 18 -5 24 -53 3 -23 7 -45 10 -49 2 -4 7 -32 10 -62 3
-30 7 -65 9 -79 13 -70 25 -222 41 -525 17 -313 17 -998 0 -1280 -11 -174 -15
-234 -21 -285 -3 -30 -7 -71 -9 -90 -2 -19 -6 -57 -10 -85 -4 -27 -8 -61 -10
-75 -2 -14 -6 -43 -9 -65 -3 -22 -10 -65 -16 -95 -6 -30 -13 -68 -15 -85 -3
-16 -7 -41 -10 -55 -3 -14 -8 -36 -10 -50 -3 -14 -10 -47 -16 -75 -6 -27 -12
-61 -15 -75 -2 -14 -7 -32 -11 -40 -3 -8 -8 -24 -10 -35 -13 -68 -140 -454
-154 -470 -5 -5 -9 -14 -9 -21 0 -6 -8 -29 -17 -50 -9 -22 -17 -41 -18 -44
-10 -32 -144 -312 -154 -320 -3 -3 -17 -25 -30 -50 -77 -145 -188 -281 -332
-405 -42 -36 -168 -115 -184 -115 -8 0 -15 -4 -15 -8 0 -13 -168 -65 -212 -66
-21 -1 -38 -3 -38 -7 0 -6 -185 -3 -215 4 -11 3 -40 8 -65 13 -51 9 -59 11
-62 14 -2 1 -10 3 -18 5 -8 2 -28 9 -45 16 -16 7 -32 13 -35 13 -3 1 -11 5
-17 9 -7 5 -13 6 -13 3 0 -14 -297 156 -320 183 -3 3 -21 17 -40 31 -70 49
-198 172 -249 240 -14 19 -32 39 -38 43 -7 4 -13 13 -13 20 0 7 -14 26 -30 44
-17 18 -30 34 -30 37 0 3 -18 31 -40 63 -22 32 -45 65 -50 73 -29 41 -170 329
-170 345 0 3 -9 24 -19 48 -11 23 -27 64 -35 90 -9 27 -23 62 -32 79 -8 16
-13 32 -10 35 3 3 -1 18 -8 32 -7 14 -18 42 -24 61 -47 157 -55 186 -54 192 1
4 -3 19 -8 33 -9 25 -18 59 -25 100 -3 19 -8 42 -19 91 -2 12 -7 39 -10 60 -3
22 -8 55 -11 74 -3 19 -8 51 -10 70 -2 19 -6 53 -9 75 -27 196 -38 584 -22
775 18 209 21 234 37 325 6 33 12 69 14 80 1 11 3 20 5 20 1 0 3 14 5 30 3 26
14 76 31 140 3 11 7 27 9 35 2 8 4 15 5 15 1 0 3 7 5 16 8 43 38 135 47 147 6
6 8 12 4 12 -4 0 3 18 14 40 11 22 18 40 16 40 -4 0 100 210 132 265 65 114
159 217 234 256 38 19 125 32 133 19 3 -4 17 -10 32 -13 46 -9 149 -82 228
-162 41 -41 75 -78 75 -83 0 -4 10 -18 23 -32 26 -29 123 -167 215 -308 53
-81 192 -341 191 -357 0 -3 9 -26 21 -51 11 -26 20 -49 20 -51 0 -3 7 -21 16
-41 62 -140 99 -183 166 -187 38 -3 47 1 78 34 38 39 40 43 50 113 7 49 6 56
-5 123 -22 130 -157 417 -284 604 -23 33 -41 64 -41 70 0 5 -3 11 -7 13 -5 2
-32 39 -62 83 -82 122 -169 234 -230 298 -31 32 -57 63 -59 68 -2 5 -8 9 -14
9 -5 0 -27 15 -48 33 -56 48 -160 106 -238 133 -65 23 -196 35 -221 20 -5 -4
-29 -9 -53 -12 -24 -4 -44 -10 -46 -15 -2 -4 -20 -13 -40 -20 -90 -30 -243
-171 -335 -310 -36 -53 -102 -173 -98 -178 1 -2 -1 -7 -6 -10 -9 -6 -39 -67
-96 -191 -13 -30 -34 -86 -46 -125 -13 -38 -26 -79 -31 -90 -19 -44 -84 -325
-95 -415 -2 -14 -6 -40 -9 -57 -12 -67 -15 -89 -21 -143 -24 -215 -28 -292
-28 -525 1 -126 3 -261 6 -300 10 -118 25 -260 33 -300 2 -11 6 -40 9 -65 2
-25 7 -56 10 -70 3 -14 7 -38 10 -55 3 -16 8 -41 10 -55 3 -14 7 -34 9 -45 3
-16 29 -124 40 -170 11 -43 45 -151 82 -260 25 -71 46 -134 47 -140 2 -5 7
-17 12 -25 5 -8 10 -21 11 -28 5 -31 91 -220 179 -392 44 -85 172 -270 284
-409 66 -83 203 -214 286 -276 22 -16 42 -33 43 -37 2 -4 10 -8 18 -8 8 0 14
-4 14 -10 0 -5 7 -10 15 -10 9 0 18 -7 21 -15 4 -8 10 -15 14 -15 4 0 39 -19
76 -42 85 -51 217 -118 245 -123 12 -2 26 -8 33 -13 12 -10 108 -42 145 -49
14 -2 28 -6 33 -9 45 -28 401 -52 488 -33 19 4 51 11 70 14 65 11 185 53 260
91 68 34 164 94 168 106 2 4 8 8 14 8 12 0 68 48 143 120 90 88 114 116 211
245 29 39 73 111 134 220 37 66 117 228 124 253 4 12 12 22 17 22 6 0 8 4 4 9
-3 5 -1 12 5 16 5 3 10 15 10 25 0 10 6 31 14 47 15 30 38 83 42 96 1 4 3 9 4
12 1 3 3 8 4 13 1 4 6 21 13 37 23 60 26 70 27 75 1 3 4 10 8 16 4 6 9 24 12
40 3 16 10 40 15 54 5 14 17 52 26 85 9 33 21 75 26 93 11 36 21 80 22 100 0
6 5 12 10 12 5 0 7 6 4 14 -3 8 -1 30 4 48 6 18 12 44 14 58 2 14 6 34 8 45 3
11 8 40 12 65 4 25 9 54 11 65 3 11 7 36 10 55 2 19 7 49 11 65 3 17 7 44 9
60 9 69 13 101 18 125 3 14 8 54 11 90 3 36 8 88 10 115 3 28 8 86 11 130 3
44 7 112 10 150 2 39 6 114 7 167 2 54 6 101 10 104 4 4 7 3 8 -2 0 -5 2 -16
4 -24 7 -33 49 -247 61 -310 4 -25 8 -47 9 -50 8 -30 19 -87 17 -93 -1 -4 2
-16 7 -25 5 -9 11 -35 14 -57 4 -22 18 -89 32 -150 14 -60 28 -128 31 -150 3
-22 10 -44 15 -50 5 -5 9 -22 9 -38 0 -15 4 -36 9 -45 5 -9 11 -33 14 -52 3
-19 10 -50 16 -68 5 -18 10 -36 11 -40 0 -4 5 -24 11 -44 5 -20 9 -40 8 -45
-1 -4 1 -15 4 -23 8 -20 36 -134 42 -173 3 -18 10 -43 15 -57 5 -14 14 -52 21
-85 7 -33 14 -64 15 -70 2 -5 17 -57 34 -115 17 -58 33 -112 35 -120 2 -8 4
-15 5 -15 1 0 3 -7 5 -15 12 -51 73 -201 120 -295 85 -169 190 -300 249 -311
30 -5 61 33 74 94 10 42 8 213 -2 267 -4 17 -8 49 -10 72 -2 23 -7 46 -10 51
-3 5 -8 22 -10 38 -3 16 -8 40 -12 54 -3 14 -7 34 -9 45 -2 11 -13 61 -25 110
-12 50 -24 97 -25 105 -2 8 -4 15 -5 15 -1 0 -3 9 -5 20 -2 11 -10 45 -19 77
-8 31 -18 67 -20 80 -3 12 -10 41 -16 63 -16 62 -60 247 -66 275 -3 14 -11 50
-19 81 -8 30 -16 64 -18 75 -2 10 -9 39 -16 64 -7 25 -14 54 -16 65 -2 17 -53
234 -72 305 -3 14 -7 35 -8 47 -1 11 -8 35 -15 52 -7 17 -10 37 -7 45 3 7 2
17 -3 22 -5 5 -13 34 -19 64 -10 48 -33 154 -47 215 -3 11 -9 40 -14 65 -8 40
-19 93 -37 170 -3 14 -6 34 -7 45 0 11 -4 22 -7 25 -4 3 -9 21 -12 40 -3 19
-15 71 -26 115 -12 44 -23 92 -26 107 -2 15 -9 37 -15 48 -6 11 -9 24 -6 28 3
5 -1 21 -9 36 -8 15 -16 37 -17 49 -2 12 -7 28 -11 35 -5 6 -5 12 -1 12 3 0 1
7 -6 15 -7 8 -10 15 -7 15 4 0 0 18 -8 40 -8 22 -12 40 -10 40 3 0 0 12 -7 28
-6 15 -14 43 -18 62 -5 19 -16 60 -25 90 -9 30 -18 63 -20 73 -9 33 -24 87
-45 165 -6 20 -12 42 -13 47 -1 6 -6 16 -10 23 -5 6 -6 12 -3 12 3 0 -1 19
-10 41 -8 23 -16 51 -19 63 -2 12 -6 30 -9 41 -3 11 -23 92 -45 179 -37 148
-47 189 -55 241 -1 11 -6 31 -10 43 -5 13 -10 34 -11 45 -10 64 -17 95 -25
119 -9 28 2 43 48 67 13 7 31 19 40 27 9 8 55 40 102 71 47 31 87 60 88 64 2
5 8 7 13 3 5 -3 12 2 15 10 3 9 10 16 15 16 11 0 122 81 127 93 2 4 10 7 18 7
8 0 14 4 14 8 0 5 26 26 58 48 31 21 59 41 62 45 3 3 28 21 55 39 28 19 56 39
62 46 7 7 29 22 50 35 21 13 40 26 43 30 5 6 72 52 231 160 37 26 75 54 84 63
9 9 23 16 31 16 8 0 14 4 14 8 0 5 27 26 60 47 33 21 60 41 60 44 0 3 20 20
45 36 24 17 45 33 45 38 0 4 16 22 35 41 48 47 88 140 81 191 -6 39 -50 94
-79 96 -6 1 -28 2 -47 3 -19 1 -39 4 -45 7 -5 3 -22 3 -37 -1z"/>
</g>
</svg>
